<?xml version="1.0" encoding="utf-8"?>
<!-- Generator: Adobe Illustrator 22.1.0, SVG Export Plug-In . SVG Version: 6.00 Build 0)  -->
<svg version="1.1" id="Livello_1" xmlns="http://www.w3.org/2000/svg" xmlns:xlink="http://www.w3.org/1999/xlink" x="0px" y="0px"
	 viewBox="0 0 272.3 124.2" style="enable-background:new 0 0 272.3 124.2;" xml:space="preserve">
<style type="text/css">
	.st0{fill:#00A0DE;}
</style>
<g>
	<path d="M1.3,57.8c0-13,9-21.7,22.5-21.7c5.6,0,10.5,1.8,14.4,4.8l-6,7.1c-2.2-1.9-4.7-3-8.2-3c-7,0-11.7,5-11.7,12.7
		c0,7.6,4.7,12.6,11.8,12.6c3.9,0,7.1-1.2,9.5-3.7l6,7c-4,4-9.6,5.8-15.9,5.8C10.3,79.5,1.3,70.9,1.3,57.8"/>
	<path d="M46,95.5l1.1-8.6c0.9,0.5,2,0.7,3.3,0.7c3.4,0,4.8-2.1,6.4-5.3l2.1-4.4L41,36.9h11.6l11.8,29.5l11-29.5h11.5L67.2,83.6
		c-3.3,8.1-6.9,13-15,13C49.8,96.6,47.5,96.2,46,95.5"/>
	<path d="M87.3,72.6c0-3.8,3.1-6.9,6.9-6.9c3.8,0,6.9,3.1,6.9,6.9c0,3.8-3.1,6.9-6.9,6.9C90.4,79.5,87.3,76.4,87.3,72.6"/>
	<path class="st0" d="M256.5,72.6c0-3.8,3.1-6.9,6.9-6.9c3.8,0,6.9,3.1,6.9,6.9c0,3.8-3.1,6.9-6.9,6.9
		C259.6,79.5,256.5,76.4,256.5,72.6"/>
	<path class="st0" d="M143.7,57.7c0-7.5-4.7-12.6-11.5-12.6c-6.9,0-11.5,5-11.5,12.7c0,7.6,4.6,12.6,11.5,12.6
		C139,70.5,143.7,65.4,143.7,57.7 M154.6,57.7c0,13.1-8.8,21.9-20,21.9c-6.4,0-10.9-2.6-13.9-6.8v23.1h-10.6V36.9h10.2l0.2,6.3
		c3-4.4,7.6-7.1,14-7.1C145.9,36.2,154.6,44.7,154.6,57.7"/>
	<path class="st0" d="M186.9,61.3c-2.7-0.5-5.5-0.9-7.9-0.9c-5,0-8.2,2.3-8.2,5.9c0,3.4,2.3,5.7,6.5,5.7
		C182.3,72,186.8,68.1,186.9,61.3 M197.5,52.5v26.3h-10.2l-0.2-6c-2.8,4.3-7.6,6.8-12.7,6.8c-8.7,0-14.5-5.2-14.5-13
		c0-8.1,7.1-13.3,17.9-13.3c2.9,0,6.1,0.3,9.2,0.9v-0.8c0-5.6-3.7-8.9-10.1-8.9c-4,0-7.1,1.2-9.8,3.3l-4.6-6.2
		c4.5-3.6,9.8-5.4,17.1-5.4C190.3,36.2,197.5,42.6,197.5,52.5"/>
	<path class="st0" d="M239.3,57.8c0-7.6-4.7-12.7-11.5-12.7c-6.9,0-11.5,5-11.5,12.6c0,7.7,4.6,12.7,11.5,12.7
		C234.7,70.5,239.3,65.4,239.3,57.8 M249.9,36.9v37.9c0,13.2-9.9,21.8-24.8,21.8c-7.4,0-13.9-1.8-18.6-5.3l2.3-8.3
		c4.7,3.2,10,4.5,16,4.5c8.7,0,14.5-5,14.5-12.8v-2c-2.9,4.3-7.5,6.8-13.9,6.8c-11.3,0-20-8.8-20-21.9c0-13,8.7-21.5,20-21.5
		c6.4,0,11.1,2.6,14,7.1l0.2-6.3H249.9z"/>
	<g>
		<path class="st0" d="M94.7,19.2v-1.4v-0.4C94.7,13.7,75.3,3,51.3,3C27.3,3,7.9,13.7,7.9,17.4v0.4v1.4c-4.1,2.4-6.5,4.6-6.5,6v0.5
			v10.5c0.3-0.5,1.2-4,6.4-7.1c7.7-4.6,25.9-10.2,43.5-10.2c17.6,0,35.7,5.5,43.5,10.2c5.2,3.1,6.1,6.6,6.4,7.1V25.7v-0.5
			C101.2,23.8,98.8,21.6,94.7,19.2z"/>
		<path class="st0" d="M94.8,96.2c-7.7,4.6-25.9,10.2-43.5,10.2c-17.6,0-35.7-5.5-43.5-10.2c-5.2-3.1-6.1-6.6-6.4-7.1v10.5v0.5
			c0,1.4,2.4,3.6,6.5,6v1.4v0.4c0,3.7,19.4,14.3,43.4,14.4c24,0,43.4-10.6,43.4-14.4v-0.4v-1.4c4.1-2.4,6.5-4.6,6.5-6v-0.5V89.1
			C100.9,89.7,100,93.1,94.8,96.2z"/>
	</g>
</g>
</svg>
